<svg width="25" height="25" viewBox="0 0 25 25" fill="none" xmlns="http://www.w3.org/2000/svg">
<path d="M24.5716 5.91128C24.5615 5.39288 24.52 4.87556 24.4471 4.3622C24.3603 3.90557 24.2128 3.46262 24.0085 3.04512C23.5612 2.16219 22.8442 1.44477 21.9616 0.996992C21.5468 0.793645 21.1067 0.646542 20.653 0.559576C20.1357 0.485242 19.6143 0.44287 19.0918 0.432701C18.8707 0.424242 18.5843 0.420617 18.4514 0.420617L6.5517 0.416992C6.41878 0.416992 6.13241 0.420617 5.91128 0.429076C5.39287 0.439064 4.87556 0.480627 4.3622 0.553534C3.90557 0.64034 3.46262 0.787858 3.04512 0.992159C2.16224 1.43948 1.44484 2.15646 0.996992 3.03908C0.793698 3.45391 0.646598 3.894 0.559576 4.3477C0.484904 4.86497 0.442129 5.38634 0.431492 5.90887C0.424242 6.12999 0.419409 6.41637 0.419409 6.54928L0.416992 18.4489C0.416992 18.5819 0.420617 18.8682 0.429076 19.0894C0.439064 19.6078 0.480627 20.1251 0.553534 20.6385C0.640354 21.0951 0.787871 21.538 0.992159 21.9555C1.43948 22.8384 2.15646 23.5558 3.03908 24.0037C3.45393 24.2069 3.894 24.354 4.3477 24.4411C4.86499 24.5154 5.38637 24.5578 5.90887 24.5679C6.12999 24.5764 6.41637 24.58 6.54928 24.58L18.449 24.5824C18.5819 24.5824 18.8682 24.5788 19.0894 24.5704C19.6078 24.5603 20.1251 24.5188 20.6385 24.4459C21.0951 24.359 21.538 24.2115 21.9555 24.0073C22.8389 23.5602 23.5567 22.8432 24.0049 21.9604C24.2082 21.5455 24.3553 21.1055 24.4423 20.6517C24.517 20.1345 24.5598 19.6131 24.5704 19.0906C24.5776 18.8694 24.5825 18.5831 24.5825 18.4502L24.5837 6.5517C24.5837 6.41878 24.58 6.13241 24.5716 5.91128ZM12.7625 20.9067H12.7589C11.3206 20.9064 9.90524 20.5458 8.64212 19.8579L4.07462 21.0553L5.29745 16.5929C4.35067 14.95 3.97236 13.0406 4.22119 11.1607C4.47001 9.28091 5.33208 7.53568 6.67371 6.19564C8.01535 4.8556 9.7616 3.99562 11.6417 3.74903C13.5219 3.50243 15.4308 3.88301 17.0727 4.83175C18.7145 5.78049 19.9974 7.24439 20.7226 8.99647C21.4478 10.7486 21.5747 12.691 21.0836 14.5225C20.5925 16.354 19.5109 17.9724 18.0064 19.1267C16.502 20.2809 14.6588 20.9066 12.7625 20.9067Z" fill="#43FFD2"/>
</svg>
