<svg width="30" height="38" viewBox="0 0 30 38" fill="none" xmlns="http://www.w3.org/2000/svg">
<path d="M8.68 32.9C8.68 34.06 8.8 34.92 9.04 35.48C9.32 36 9.8 36.36 10.48 36.56C11.2 36.76 12.32 36.86 13.84 36.86H21.52C25.48 36.86 27.82 34.32 28.54 29.24C28.54 29.12 28.64 29.08 28.84 29.12C29.08 29.12 29.2 29.18 29.2 29.3C28.84 32.46 28.66 35.06 28.66 37.1C28.66 37.42 28.6 37.66 28.48 37.82C28.36 37.94 28.12 38 27.76 38H0.16C0.0800001 38 0.0400001 37.88 0.0400001 37.64C0.0400001 37.4 0.0800001 37.28 0.16 37.28C1.72 37.28 2.86 37.18 3.58 36.98C4.34 36.78 4.84 36.4 5.08 35.84C5.36 35.24 5.5 34.34 5.5 33.14V5.36C5.5 4.16 5.36 3.28 5.08 2.72C4.84 2.16 4.34 1.78 3.58 1.58C2.86 1.34 1.72 1.22 0.16 1.22C0.0800001 1.22 0.0400001 1.1 0.0400001 0.859999C0.0400001 0.62 0.0800001 0.5 0.16 0.5L3.1 0.559999C4.78 0.639998 6.1 0.679998 7.06 0.679998C8.14 0.679998 9.52 0.639998 11.2 0.559999L14.02 0.5C14.1 0.5 14.14 0.62 14.14 0.859999C14.14 1.1 14.1 1.22 14.02 1.22C12.46 1.22 11.3 1.34 10.54 1.58C9.82 1.78 9.32 2.18 9.04 2.78C8.8 3.34 8.68 4.22 8.68 5.42V32.9Z" fill="#8A8686"/>
</svg>
